<svg xmlns="http://www.w3.org/2000/svg" viewBox="0 0 32 32">
  <rect width="32" height="32" rx="5" fill="#124870"/>
  <defs>
    <linearGradient id="brain-grad" x1="0%" y1="0%" x2="100%" y2="100%">
      <stop offset="0%" stop-color="#00AFFF"/>
      <stop offset="100%" stop-color="#00FFA3"/>
    </linearGradient>
    <!-- Original icon viewBox: approx x=752 y=517 w=112 h=83 -->
    <clipPath id="c"><rect x="3" y="4" width="26" height="24"/></clipPath>
  </defs>
  <!-- Brain icon scaled from original 1920x1080 canvas, icon centred ~752–864 x, 517–600 y -->
  <g clip-path="url(#c)">
    <g transform="translate(3,4) scale(0.2321, 0.2892)">
      <!-- Recentre: original icon group starts at ~752,517; translate so 752,517 maps to 0,0 -->
      <g transform="translate(-752,-517)">
        <path fill="url(#brain-grad)" d="M856.64,546.3
          c-1.7-2.56-3.5-4.31-5.5-5.34c-0.53-1.56-1.44-3.16-2.68-4.75c-5.45-6.99-14.29-11.25-23.24-11.25c-0.24,0-0.49,0-0.73,0.01
          c-0.71-1.38-1.76-2.66-3.12-3.82c-3.4-2.89-8.12-4.24-12.97-3.7c-3.57,0.39-6.95,1.81-9.53,3.99c-0.66-0.33-1.38-0.64-2.14-0.93
          c-9.04-3.42-19.28-3.11-28.09,0.87c-7.32,3.31-13.39,9.14-16.64,16c-3.46,7.3-3.77,15.91-0.83,23.03c1.73,4.2,4.45,7.73,7.88,10.22
          c4.62,3.36,10.72,5.04,18.63,5.13c2.67,0.03,5.41-0.11,7.97-0.25c1.35,1.67,3.02,2.98,4.85,3.79c3.03,1.35,6.4,1.56,10.59,0.66
          c4.88,7.45,11.52,11.2,19.21,15.53l0.72,0.41c3.53,1.99,7.65,4.12,11.84,4.12c1.65,0,3.25-0.33,4.76-0.98
          c2.3-0.99,3.55-2.33,3.72-3.96c0.36-3.48-4.24-7-10.77-11.59c-4.71-3.31-10-5.9-15.73-7.72c8.95-2.22,18.56-1.66,27.17,1.59
          c0.34,0.13,0.68,0.26,1.02,0.39l0.11,0.04c3.09,1.2,6.29,2.44,9.63,1.6c4.13-1.03,7.25-5.13,8.35-10.95
          C862.54,560.84,860.91,552.76,856.64,546.3z M808.62,577.69c0.6-0.21,1.21-0.42,1.81-0.62c6.91,1.73,13.19,4.56,18.69,8.42
          c3.74,2.62,9.99,7.01,9.75,9.34c-0.07,0.69-0.83,1.35-2.26,1.96l-0.08,0.04c-4.73,1.98-9.48-0.31-14.34-3.05l-0.72-0.41
          c-7.16-4.04-13.36-7.53-17.89-14.04C805.28,578.84,806.98,578.26,808.62,577.69z M796.5,575.17c0.65,0.02,1.3,0.05,1.95,0.09
          c0.42,0.87,0.84,1.7,1.26,2.47c-3.28,0.59-5.91,0.37-8.25-0.66c-0.96-0.42-1.85-1.01-2.67-1.74
          C791.29,575.19,793.93,575.09,796.5,575.17z M816.07,553.47c0.24-0.1,0.5-0.16,0.76-0.16c0.5,0,0.94,0.18,1.22,0.33
          c0.87,0.47,1.54,1.34,1.69,2.22c0.35,1.95-0.93,3.88-2.38,4.96c-0.35-0.26-0.68-0.54-0.98-0.84c-1.12-1.12-1.77-2.4-1.86-3.6
          C814.45,555.12,815.1,553.89,816.07,553.47z M817.41,561.02L817.41,561.02l0.02,0.01c0,0,0,0,0,0L817.41,561.02z M793.07,549.58
          c7.21-6.06,17.1-8.99,26.45-7.84c3.35,0.41,9.39,1.81,12.13,6.54c2.32,4,1.18,9.75-2.49,12.56c-2.52,1.93-6.29,2.41-9.48,1.22
          c1.94-1.84,2.88-4.36,2.47-6.64c-0.29-1.62-1.42-3.13-2.95-3.94c-1.34-0.72-2.84-0.81-4.11-0.26c-1.92,0.84-3.15,3.02-2.99,5.32
          c0.15,2.28,1.48,4.06,2.56,5.15c0.13,0.13,0.26,0.25,0.39,0.37c-1.03,0.4-2.25,0.72-4,1.06c-4.49,0.86-9.06,1.31-13.6,1.32
          c-0.02-0.12-0.03-0.24-0.05-0.35c-0.09-0.74-0.17-1.45-0.25-2.12c-0.49-4.41-0.84-7.6-4.01-10.55c-0.36-0.33-0.73-0.65-1.11-0.94
          C792.37,550.18,792.72,549.87,793.07,549.58z M790.28,552.25c0.43,0.32,0.83,0.64,1.2,0.98c2.51,2.33,2.8,4.99,3.25,9.02
          c0.08,0.69,0.16,1.4,0.25,2.15l0,0.02c-3.43-0.11-6.89-0.46-10.3-1.05C785.19,559.53,787.13,555.69,790.28,552.25z M776.21,554.89
          c0.67-2.07,2.25-3.8,4.13-4.53c0.94-0.36,1.95-0.55,3.01-0.55c1.55,0,3.2,0.4,4.79,1.15c-3.25,3.66-5.27,7.77-5.86,11.91
          c-2.81-0.71-4.66-1.8-5.64-3.34C775.8,558.25,775.65,556.6,776.21,554.89z M795.43,566.88c0.42,1.8,1.08,3.82,1.92,5.87
          c-0.26-0.01-0.51-0.02-0.77-0.03c-3.34-0.1-6.76,0.09-9.78,0.27c-1.36-2.07-2.15-4.59-2.24-7.16
          C788.15,566.44,791.81,566.8,795.43,566.88z M810.33,574.53c-3.32-0.79-6.77-1.33-10.26-1.61c-0.91-2.09-1.64-4.16-2.12-6.02
          c4.52-0.04,9.08-0.5,13.56-1.36c1.94-0.37,3.99-0.86,5.84-1.83c4.26,2.29,9.59,1.92,13.3-0.92c4.67-3.58,6.07-10.64,3.12-15.73
          c-3.28-5.64-10.15-7.27-13.95-7.74c-10-1.24-20.6,1.9-28.32,8.39c-0.55,0.46-1.08,0.93-1.57,1.41c-3.46-1.89-7.27-2.27-10.47-1.03
          c-2.55,0.99-4.68,3.3-5.58,6.05c-0.79,2.42-0.54,4.81,0.7,6.73c1.41,2.19,3.8,3.62,7.52,4.49c0.01,2.74,0.68,5.42,1.96,7.8
          c-2.04,0.11-4.22,0.2-6.38,0.17c-7.39-0.09-13.02-1.61-17.22-4.67c-3.06-2.22-5.5-5.4-7.05-9.18c-2.67-6.5-2.38-14.37,0.79-21.05
          c3.01-6.35,8.63-11.75,15.44-14.82c8.22-3.71,17.78-4.01,26.22-0.81c0.41,0.16,0.8,0.32,1.17,0.48c-0.17,0.2-0.33,0.41-0.48,0.61
          c-1.6,2.11-2.39,4.3-2.3,6.35c0.12,2.74,1.96,5.1,4.37,5.61c1.71,0.37,3.43-0.26,4.73-1.71c1.6-1.79,2.2-4.45,1.48-6.6
          c-0.6-1.82-1.85-3.41-3.72-4.75c2.13-1.59,4.74-2.59,7.55-2.9c4.17-0.45,8.23,0.68,11.12,3.14c0.55,0.47,1.32,1.21,1.98,2.15
          c-0.21,0.03-0.43,0.06-0.64,0.09c-3.74,0.55-6.15,2.3-6.61,4.8c-0.27,1.48,0.27,2.98,1.5,4.11c1.37,1.26,3.24,1.77,4.9,1.33
          c2.86-0.76,4.87-3.91,4.59-7.17c-0.03-0.31-0.07-0.62-0.14-0.93c8.25,0.04,16.16,3.89,21.17,10.31c0.6,0.77,1.12,1.55,1.53,2.31
          c-2.14-0.25-4.15,0.3-5.6,1.52c-1.28,1.07-2.05,2.76-2.08,4.51c-0.02,1.57,0.55,2.95,1.62,3.91c1.28,1.13,3.05,1.47,4.86,0.91
          c2.21-0.67,4.06-2.55,4.61-4.66c0.16-0.63,0.24-1.28,0.25-1.94c1,0.84,1.95,1.95,2.89,3.38c3.93,5.93,5.42,13.35,4.1,20.34
          c-0.34,1.82-1.84,7.85-6.54,9.04c-2.59,0.65-5.41-0.44-8.15-1.51c-0.39-0.15-0.78-0.3-1.16-0.45c-5.43-2.05-11.15-3.09-17.02-3.09
          c-4.79,0-9.51,0.7-14.04,2.09C811.3,574.22,810.82,574.37,810.33,574.53z M801.51,532.5c-0.41,0.46-1.27,1.18-2.4,0.95
          c-1.44-0.3-2.37-1.93-2.43-3.33c-0.08-1.85,0.94-3.61,1.8-4.76c0.23-0.31,0.48-0.61,0.75-0.9c1.69,1.1,2.78,2.39,3.27,3.83
          C802.94,529.63,802.54,531.35,801.51,532.5z M820.27,533.14c-0.83,0.22-1.86-0.08-2.61-0.76c-0.6-0.55-0.87-1.23-0.76-1.87
          c0.38-2.05,3.59-2.68,4.56-2.82c0.46-0.07,0.93-0.13,1.4-0.17c0.09,0.35,0.15,0.69,0.18,1.03
          C823.21,530.35,822.19,532.63,820.27,533.14z M849.08,545.61c-0.33,1.3-1.55,2.5-2.95,2.93c-0.58,0.17-1.66,0.35-2.52-0.41
          c-0.53-0.47-0.81-1.19-0.8-2.04c0.01-1.04,0.48-2.06,1.21-2.67c0.79-0.66,1.83-1.01,3.01-1.01c0.68,0,1.4,0.12,2.07,0.34
          C849.32,543.76,849.31,544.72,849.08,545.61z M805.74,576.09c-1.11,0.37-2.33,0.76-3.54,1.08c-0.31-0.53-0.61-1.09-0.91-1.68
          C802.78,575.64,804.28,575.84,805.74,576.09z"/>
      </g>
    </g>
  </g>
</svg>
